<svg width="69" height="50" viewBox="0 0 69 50" fill="none" xmlns="http://www.w3.org/2000/svg">
<path d="M0 18.3616L15.2126 0L30.4252 18.3616V50H0V18.3616Z" fill="#BE7171"/>
<path d="M19.559 18.3616L34.7716 2.54236L49.9842 18.3616V50H19.559V18.3616Z" fill="#BE7171"/>
<path d="M38.5748 18.3616L53.7874 0L69 18.3616V50H38.5748V18.3616Z" fill="#BE7171"/>
<rect x="4" y="21.1851" width="6" height="8" fill="#C4C4C4"/>
<rect x="4" y="33.1851" width="6" height="8" fill="#C4C4C4"/>
<rect x="17" y="33.1851" width="7" height="8" fill="#C4C4C4"/>
<rect x="17" y="21.1851" width="7" height="8" fill="#C4C4C4"/>
<rect x="32" y="10.1851" width="6" height="7" fill="#C4C4C4"/>
<rect x="11" y="10.1851" width="6" height="7" fill="#C4C4C4"/>
<rect x="51" y="10.1851" width="6" height="7" fill="#C4C4C4"/>
<rect x="45" y="21.1851" width="6" height="8" fill="#C4C4C4"/>
<rect x="45" y="33.1851" width="6" height="8" fill="#C4C4C4"/>
<rect x="57" y="33.1851" width="7" height="8" fill="#C4C4C4"/>
<rect x="57" y="21.1851" width="7" height="8" fill="#C4C4C4"/>
</svg>
